<svg version="1.1" id="Layer_1" xmlns="http://www.w3.org/2000/svg" xmlns:xlink="http://www.w3.org/1999/xlink" x="0px" y="0px"
	 width="100%" viewBox="0 0 1000 1000" enable-background="new 0 0 1000 1000" xml:space="preserve">
<path fill="#EE3E38" opacity="1.000000" stroke="none" 
	d="
M544.000000,1001.000000 
	C515.645752,1001.000000 487.291534,1001.000000 458.671326,1000.596802 
	C457.725281,999.805847 457.078918,999.163086 456.360168,999.068054 
	C440.791595,997.009277 425.083252,995.711365 409.675537,992.812317 
	C393.087494,989.691040 376.578339,985.755981 360.404114,980.936523 
	C342.804657,975.692322 325.226440,969.962708 308.375458,962.729126 
	C288.900116,954.369019 269.651306,945.125305 251.364807,934.448547 
	C231.827423,923.041504 213.187393,909.987000 194.809341,896.744446 
	C182.978058,888.219299 171.839523,878.570740 161.247437,868.522400 
	C140.603729,848.938538 121.082603,828.306335 103.822296,805.532227 
	C87.690254,784.246948 73.024506,762.067627 60.368172,738.610596 
	C43.360275,707.088440 29.538591,674.153564 20.153040,639.556274 
	C15.341909,621.821350 11.540134,603.774841 8.138824,585.707886 
	C5.689789,572.699158 4.686810,559.419861 2.919821,546.277222 
	C2.808209,545.447144 1.663876,544.755859 0.999995,544.000000 
	C1.000000,515.645752 1.000000,487.291534 1.407339,458.656006 
	C2.200127,457.694580 2.840397,457.047363 2.933250,456.329376 
	C4.655325,443.013000 5.565721,429.541077 8.156320,416.399414 
	C12.119675,396.293945 16.510973,376.211212 22.080568,356.503143 
	C26.717197,340.096405 32.424515,323.854645 39.261604,308.242279 
	C47.763977,288.827271 56.940945,269.565125 67.620461,251.284988 
	C79.038162,231.741257 92.066544,213.073410 105.311211,194.685455 
	C113.831886,182.855957 123.564331,171.801071 133.566818,161.163635 
	C144.480072,149.557587 156.065704,138.541473 167.855606,127.814865 
	C178.049179,118.540619 188.561752,109.525009 199.606140,101.298370 
	C218.587738,87.159561 238.343842,74.170845 259.213074,62.843910 
	C281.921478,50.518745 305.046722,39.150208 329.536926,30.928549 
	C348.025665,24.721657 366.797913,19.307577 385.602264,14.113727 
	C395.313446,11.431456 405.309875,9.604388 415.283966,8.094972 
	C428.880157,6.037416 442.581207,4.676413 456.222778,2.904869 
	C456.886444,2.818685 457.410767,1.659511 458.000000,0.999996 
	C486.354218,1.000000 514.708435,1.000000 543.335449,1.405117 
	C544.288452,2.196865 544.936768,2.843443 545.653625,2.931247 
	C557.035706,4.325387 568.565002,4.941147 579.786011,7.137554 
	C601.515930,11.391006 623.419128,15.344136 644.627869,21.549704 
	C684.038452,33.081024 721.329346,49.764774 756.749268,70.794685 
	C786.305542,88.343231 813.800842,108.591080 838.984924,131.785538 
	C857.598389,148.928452 875.091003,167.276169 890.915649,187.202560 
	C909.767578,210.940948 926.681702,235.891205 941.106995,262.511230 
	C959.289795,296.065247 973.742004,331.188477 983.436340,368.122375 
	C987.607483,384.013458 990.964294,400.154388 993.876221,416.328491 
	C996.222534,429.360748 997.313904,442.617523 999.080811,455.758759 
	C999.190796,456.577057 1000.336243,457.256165 1001.000000,458.000000 
	C1001.000000,486.354218 1001.000000,514.708435 1000.596802,543.328613 
	C999.805908,544.274780 999.161682,544.921814 999.068726,545.640198 
	C997.346985,558.949402 996.436035,572.413940 993.848877,585.549133 
	C989.827454,605.965637 985.408386,626.365967 979.770447,646.382324 
	C975.237732,662.474915 969.496948,678.361694 962.759399,693.664978 
	C954.214417,713.073303 945.102844,732.373352 934.424805,750.662903 
	C923.017822,770.200928 909.951599,788.830444 896.742126,807.233887 
	C888.430359,818.813843 878.988831,829.686584 869.209778,840.082336 
	C858.179688,851.808289 846.458679,862.924316 834.558533,873.779724 
	C824.365112,883.078247 813.866211,892.129089 802.842590,900.411316 
	C782.739868,915.514832 761.687561,929.252380 739.483093,941.134338 
	C705.987366,959.058411 671.134460,973.686890 634.311279,983.210754 
	C618.247864,987.365356 601.988831,990.897034 585.665466,993.871338 
	C572.640625,996.244568 559.379639,997.313965 546.239441,999.080750 
	C545.421692,999.190674 544.743225,1000.336243 544.000000,1001.000000 
M460.306091,728.214539 
	C466.317535,744.784302 472.400696,761.328735 478.276398,777.946533 
	C479.375244,781.054199 480.728455,782.414978 484.275513,782.284973 
	C492.763214,781.973755 501.278107,781.968994 509.765320,782.286804 
	C513.330200,782.420288 514.656860,780.987000 515.782043,777.935669 
	C537.186523,719.890686 558.700562,661.886230 580.145264,603.856018 
	C584.904419,590.977478 589.485901,578.033264 594.535645,564.048889 
	C600.893433,639.359375 607.147583,713.442688 613.403992,787.552002 
	C628.244507,787.552002 642.176331,787.552002 656.684998,787.552002 
	C647.984802,692.966187 639.314270,598.702393 630.611145,504.084686 
	C613.808105,504.084686 597.505310,504.013428 581.206665,504.241150 
	C580.090820,504.256744 578.509888,506.326111 577.978455,507.751068 
	C553.225830,574.127197 528.557800,640.534851 503.909088,706.949707 
	C501.720215,712.847534 499.726654,718.817810 497.181854,726.066101 
	C495.130341,719.959595 493.622284,715.238708 491.964447,710.570923 
	C467.922699,642.880737 443.849030,575.201843 419.849274,507.496765 
	C418.927246,504.895630 417.655182,503.915894 414.825409,504.002441 
	C407.666199,504.221344 400.495789,504.074707 393.329865,504.074646 
	C384.711426,504.074554 376.092987,504.074646 367.173981,504.074646 
	C359.862396,598.852356 352.592987,693.083618 345.303284,787.577881 
	C359.912384,787.577881 373.836304,787.577881 388.196594,787.577881 
	C391.019958,750.682983 393.989014,714.008728 396.589142,677.308289 
	C399.179657,640.743774 401.400085,604.153015 403.798126,567.338440 
	C422.606140,620.869385 441.333618,674.170959 460.306091,728.214539 
M544.004700,338.452393 
	C550.208618,334.888428 556.511658,331.480560 562.545593,327.648895 
	C564.024231,326.709961 565.481689,324.392517 565.496155,322.696381 
	C565.689941,300.037231 565.679016,277.375519 565.510193,254.715988 
	C565.498352,253.122330 564.249084,250.853043 562.894287,250.057175 
	C543.238708,238.511047 523.483337,227.134079 503.682159,215.838684 
	C502.471466,215.148087 500.326385,214.832031 499.213043,215.438202 
	C491.643250,219.559738 484.233765,223.975723 476.214569,228.619751 
	C478.229736,229.856903 479.737427,230.831619 481.290222,231.728256 
	C499.303253,242.129501 517.263672,252.624481 535.389526,262.825531 
	C539.167847,264.951935 540.745178,267.206085 540.684326,271.728485 
	C540.401855,292.719238 540.558899,313.715912 540.560974,334.710449 
	C540.561096,335.876617 540.275024,337.183807 540.718140,338.152802 
	C540.960205,338.682159 542.454102,338.639038 544.004700,338.452393 
M504.087677,373.451538 
	C492.328735,366.675110 480.569763,359.898682 468.100586,352.712982 
	C468.100586,361.741821 468.221283,369.849823 468.032623,377.950592 
	C467.969849,380.646606 468.856689,382.095520 471.183563,383.423950 
	C490.830597,394.640106 510.376068,406.034332 530.050598,417.201447 
	C531.412231,417.974274 533.952942,418.037659 535.291260,417.278290 
	C555.110718,406.032227 574.831787,394.612244 594.521973,383.140472 
	C595.633911,382.492615 596.998291,381.056702 597.023926,379.959015 
	C597.228516,371.204681 597.138123,362.443481 597.138123,352.999176 
	C595.042114,354.140533 593.609497,354.881836 592.213501,355.686646 
	C573.623413,366.404449 555.000305,377.066040 536.492859,387.924744 
	C533.674805,389.578186 531.640808,389.557739 528.876770,387.870605 
	C520.928589,383.018982 512.780701,378.494720 504.087677,373.451538 
M531.257874,268.488403 
	C511.817261,257.268555 492.407684,245.993866 472.880157,234.927383 
	C471.223480,233.988525 468.271515,233.540161 466.776611,234.382248 
	C446.930725,245.561768 427.225555,256.991760 407.539062,268.451630 
	C406.410706,269.108459 405.009521,270.544830 404.982971,271.648407 
	C404.773041,280.377380 404.866211,289.113647 404.866211,298.646088 
	C407.393005,297.283813 409.120972,296.406281 410.797760,295.439880 
	C428.517151,285.227539 446.329865,275.170319 463.868011,264.655304 
	C468.068451,262.136932 470.955017,262.371765 475.009308,264.786469 
	C492.722076,275.336151 510.655975,285.514679 528.519409,295.810913 
	C530.033325,296.683533 531.619568,297.430786 533.874939,298.600861 
	C533.874939,289.029541 533.930176,280.267670 533.790100,271.508881 
	C533.776062,270.627045 532.580444,269.764069 531.257874,268.488403 
M470.817932,419.653168 
	C479.907349,424.877258 488.971680,430.146088 498.114807,435.274414 
	C499.399567,435.994995 501.487366,436.800964 502.495728,436.256500 
	C510.343842,432.019196 518.018494,427.460541 526.238403,422.717529 
	C506.385406,411.246185 487.351562,399.956299 467.989349,389.260925 
	C463.004303,386.507263 461.556885,383.452026 461.643463,378.013184 
	C461.966919,357.690216 461.772705,337.359039 461.772675,317.030945 
	C461.772675,315.327515 461.772675,313.624115 461.772675,310.960785 
	C453.199280,315.892548 445.663055,320.092773 438.320068,324.607269 
	C437.300201,325.234344 436.797119,327.410095 436.791046,328.871979 
	C436.697388,351.365784 436.651825,373.860809 436.864532,396.352997 
	C436.881744,398.176056 438.418793,400.710571 440.003754,401.674591 
	C449.953400,407.726349 460.116974,413.426453 470.817932,419.653168 
M549.872925,372.333374 
	C564.434082,363.932648 579.039246,355.606079 593.495850,347.029083 
	C595.141602,346.052673 596.979431,343.681610 596.997253,341.939575 
	C597.230530,319.109070 597.168335,296.275360 597.106445,273.442627 
	C597.103210,272.240112 596.818359,270.416046 596.025208,269.934631 
	C588.425659,265.321716 580.688416,260.935699 572.121582,255.982162 
	C572.121582,258.945465 572.121582,260.718628 572.121582,262.491791 
	C572.121521,283.824707 572.055054,305.158051 572.195618,326.490051 
	C572.215881,329.561188 571.246033,331.230072 568.590881,332.740784 
	C549.639343,343.523438 530.780518,354.469116 511.896820,365.370972 
	C510.709351,366.056549 509.561096,366.810028 507.854706,367.866058 
	C515.964478,372.545044 523.387085,376.949677 530.966675,381.065186 
	C532.067505,381.662964 534.144531,381.305542 535.384216,380.655151 
	C540.097351,378.182465 544.652161,375.408173 549.872925,372.333374 
M486.166687,288.610229 
	C488.666016,287.097260 491.165344,285.584320 494.199860,283.747375 
	C486.727936,279.441864 479.880341,275.688141 473.250000,271.583496 
	C470.496338,269.878784 468.454742,269.787201 465.579498,271.476044 
	C446.642914,282.598938 427.620911,293.579010 408.512360,304.403778 
	C405.613586,306.045868 404.749420,307.862793 404.773041,311.066742 
	C404.919312,330.890869 405.306213,350.732513 404.622864,370.534149 
	C404.344910,378.589203 406.338623,383.518585 413.955994,386.619751 
	C419.347687,388.814697 424.224579,392.274170 429.878601,395.479462 
	C429.878601,371.467743 429.948608,348.481079 429.799347,325.495880 
	C429.778198,322.237457 430.747223,320.466949 433.610474,318.845581 
	C450.983063,309.008240 468.231079,298.950867 486.166687,288.610229 
z"/>
<path fill="#000000" opacity="1.000000" stroke="none" 
	d="
M0.999995,544.468628 
	C1.663876,544.755859 2.808209,545.447144 2.919821,546.277222 
	C4.686810,559.419861 5.689789,572.699158 8.138824,585.707886 
	C11.540134,603.774841 15.341909,621.821350 20.153040,639.556274 
	C29.538591,674.153564 43.360275,707.088440 60.368172,738.610596 
	C73.024506,762.067627 87.690254,784.246948 103.822296,805.532227 
	C121.082603,828.306335 140.603729,848.938538 161.247437,868.522400 
	C171.839523,878.570740 182.978058,888.219299 194.809341,896.744446 
	C213.187393,909.987000 231.827423,923.041504 251.364807,934.448547 
	C269.651306,945.125305 288.900116,954.369019 308.375458,962.729126 
	C325.226440,969.962708 342.804657,975.692322 360.404114,980.936523 
	C376.578339,985.755981 393.087494,989.691040 409.675537,992.812317 
	C425.083252,995.711365 440.791595,997.009277 456.360168,999.068054 
	C457.078918,999.163086 457.725281,999.805847 458.202698,1000.596802 
	C305.739594,1001.000000 153.479172,1001.000000 1.000000,1001.000000 
	C1.000000,848.979187 1.000000,696.958252 0.999995,544.468628 
z"/>
<path fill="#000000" opacity="1.000000" stroke="none" 
	d="
M544.468628,1001.000000 
	C544.743225,1000.336243 545.421692,999.190674 546.239441,999.080750 
	C559.379639,997.313965 572.640625,996.244568 585.665466,993.871338 
	C601.988831,990.897034 618.247864,987.365356 634.311279,983.210754 
	C671.134460,973.686890 705.987366,959.058411 739.483093,941.134338 
	C761.687561,929.252380 782.739868,915.514832 802.842590,900.411316 
	C813.866211,892.129089 824.365112,883.078247 834.558533,873.779724 
	C846.458679,862.924316 858.179688,851.808289 869.209778,840.082336 
	C878.988831,829.686584 888.430359,818.813843 896.742126,807.233887 
	C909.951599,788.830444 923.017822,770.200928 934.424805,750.662903 
	C945.102844,732.373352 954.214417,713.073303 962.759399,693.664978 
	C969.496948,678.361694 975.237732,662.474915 979.770447,646.382324 
	C985.408386,626.365967 989.827454,605.965637 993.848877,585.549133 
	C996.436035,572.413940 997.346985,558.949402 999.068726,545.640198 
	C999.161682,544.921814 999.805908,544.274780 1000.596802,543.797241 
	C1001.000000,696.260376 1001.000000,848.520813 1001.000000,1001.000000 
	C848.979187,1001.000000 696.958252,1001.000000 544.468628,1001.000000 
z"/>
<path fill="#000000" opacity="1.000000" stroke="none" 
	d="
M457.531342,0.999996 
	C457.410767,1.659511 456.886444,2.818685 456.222778,2.904869 
	C442.581207,4.676413 428.880157,6.037416 415.283966,8.094972 
	C405.309875,9.604388 395.313446,11.431456 385.602264,14.113727 
	C366.797913,19.307577 348.025665,24.721657 329.536926,30.928549 
	C305.046722,39.150208 281.921478,50.518745 259.213074,62.843910 
	C238.343842,74.170845 218.587738,87.159561 199.606140,101.298370 
	C188.561752,109.525009 178.049179,118.540619 167.855606,127.814865 
	C156.065704,138.541473 144.480072,149.557587 133.566818,161.163635 
	C123.564331,171.801071 113.831886,182.855957 105.311211,194.685455 
	C92.066544,213.073410 79.038162,231.741257 67.620461,251.284988 
	C56.940945,269.565125 47.763977,288.827271 39.261604,308.242279 
	C32.424515,323.854645 26.717197,340.096405 22.080568,356.503143 
	C16.510973,376.211212 12.119675,396.293945 8.156320,416.399414 
	C5.565721,429.541077 4.655325,443.013000 2.933250,456.329376 
	C2.840397,457.047363 2.200127,457.694580 1.407339,458.187378 
	C1.000000,305.739594 1.000000,153.479172 1.000000,1.000000 
	C153.020828,1.000000 305.041748,1.000000 457.531342,0.999996 
z"/>
<path fill="#000000" opacity="1.000000" stroke="none" 
	d="
M1001.000000,457.531342 
	C1000.336243,457.256165 999.190796,456.577057 999.080811,455.758759 
	C997.313904,442.617523 996.222534,429.360748 993.876221,416.328491 
	C990.964294,400.154388 987.607483,384.013458 983.436340,368.122375 
	C973.742004,331.188477 959.289795,296.065247 941.106995,262.511230 
	C926.681702,235.891205 909.767578,210.940948 890.915649,187.202560 
	C875.091003,167.276169 857.598389,148.928452 838.984924,131.785538 
	C813.800842,108.591080 786.305542,88.343231 756.749268,70.794685 
	C721.329346,49.764774 684.038452,33.081024 644.627869,21.549704 
	C623.419128,15.344136 601.515930,11.391006 579.786011,7.137554 
	C568.565002,4.941147 557.035706,4.325387 545.653625,2.931247 
	C544.936768,2.843443 544.288452,2.196865 543.804077,1.405117 
	C696.260376,1.000000 848.520813,1.000000 1001.000000,1.000000 
	C1001.000000,153.020828 1001.000000,305.041748 1001.000000,457.531342 
z"/>
<path fill="#FFFEFE" opacity="1.000000" stroke="none" 
	d="
M460.183594,727.843567 
	C441.333618,674.170959 422.606140,620.869385 403.798126,567.338440 
	C401.400085,604.153015 399.179657,640.743774 396.589142,677.308289 
	C393.989014,714.008728 391.019958,750.682983 388.196594,787.577881 
	C373.836304,787.577881 359.912384,787.577881 345.303284,787.577881 
	C352.592987,693.083618 359.862396,598.852356 367.173981,504.074646 
	C376.092987,504.074646 384.711426,504.074554 393.329865,504.074646 
	C400.495789,504.074707 407.666199,504.221344 414.825409,504.002441 
	C417.655182,503.915894 418.927246,504.895630 419.849274,507.496765 
	C443.849030,575.201843 467.922699,642.880737 491.964447,710.570923 
	C493.622284,715.238708 495.130341,719.959595 497.181854,726.066101 
	C499.726654,718.817810 501.720215,712.847534 503.909088,706.949707 
	C528.557800,640.534851 553.225830,574.127197 577.978455,507.751068 
	C578.509888,506.326111 580.090820,504.256744 581.206665,504.241150 
	C597.505310,504.013428 613.808105,504.084686 630.611145,504.084686 
	C639.314270,598.702393 647.984802,692.966187 656.684998,787.552002 
	C642.176331,787.552002 628.244507,787.552002 613.403992,787.552002 
	C607.147583,713.442688 600.893433,639.359375 594.535645,564.048889 
	C589.485901,578.033264 584.904419,590.977478 580.145264,603.856018 
	C558.700562,661.886230 537.186523,719.890686 515.782043,777.935669 
	C514.656860,780.987000 513.330200,782.420288 509.765320,782.286804 
	C501.278107,781.968994 492.763214,781.973755 484.275513,782.284973 
	C480.728455,782.414978 479.375244,781.054199 478.276398,777.946533 
	C472.400696,761.328735 466.317535,744.784302 460.183594,727.843567 
z"/>
<path fill="#FFFCFC" opacity="1.000000" stroke="none" 
	d="
M543.694092,338.653259 
	C542.454102,338.639038 540.960205,338.682159 540.718140,338.152802 
	C540.275024,337.183807 540.561096,335.876617 540.560974,334.710449 
	C540.558899,313.715912 540.401855,292.719238 540.684326,271.728485 
	C540.745178,267.206085 539.167847,264.951935 535.389526,262.825531 
	C517.263672,252.624481 499.303253,242.129501 481.290222,231.728256 
	C479.737427,230.831619 478.229736,229.856903 476.214569,228.619751 
	C484.233765,223.975723 491.643250,219.559738 499.213043,215.438202 
	C500.326385,214.832031 502.471466,215.148087 503.682159,215.838684 
	C523.483337,227.134079 543.238708,238.511047 562.894287,250.057175 
	C564.249084,250.853043 565.498352,253.122330 565.510193,254.715988 
	C565.679016,277.375519 565.689941,300.037231 565.496155,322.696381 
	C565.481689,324.392517 564.024231,326.709961 562.545593,327.648895 
	C556.511658,331.480560 550.208618,334.888428 543.694092,338.653259 
z"/>
<path fill="#FFFDFD" opacity="1.000000" stroke="none" 
	d="
M504.399475,373.646667 
	C512.780701,378.494720 520.928589,383.018982 528.876770,387.870605 
	C531.640808,389.557739 533.674805,389.578186 536.492859,387.924744 
	C555.000305,377.066040 573.623413,366.404449 592.213501,355.686646 
	C593.609497,354.881836 595.042114,354.140533 597.138123,352.999176 
	C597.138123,362.443481 597.228516,371.204681 597.023926,379.959015 
	C596.998291,381.056702 595.633911,382.492615 594.521973,383.140472 
	C574.831787,394.612244 555.110718,406.032227 535.291260,417.278290 
	C533.952942,418.037659 531.412231,417.974274 530.050598,417.201447 
	C510.376068,406.034332 490.830597,394.640106 471.183563,383.423950 
	C468.856689,382.095520 467.969849,380.646606 468.032623,377.950592 
	C468.221283,369.849823 468.100586,361.741821 468.100586,352.712982 
	C480.569763,359.898682 492.328735,366.675110 504.399475,373.646667 
z"/>
<path fill="#FFFDFD" opacity="1.000000" stroke="none" 
	d="
M531.595520,268.690369 
	C532.580444,269.764069 533.776062,270.627045 533.790100,271.508881 
	C533.930176,280.267670 533.874939,289.029541 533.874939,298.600861 
	C531.619568,297.430786 530.033325,296.683533 528.519409,295.810913 
	C510.655975,285.514679 492.722076,275.336151 475.009308,264.786469 
	C470.955017,262.371765 468.068451,262.136932 463.868011,264.655304 
	C446.329865,275.170319 428.517151,285.227539 410.797760,295.439880 
	C409.120972,296.406281 407.393005,297.283813 404.866211,298.646088 
	C404.866211,289.113647 404.773041,280.377380 404.982971,271.648407 
	C405.009521,270.544830 406.410706,269.108459 407.539062,268.451630 
	C427.225555,256.991760 446.930725,245.561768 466.776611,234.382248 
	C468.271515,233.540161 471.223480,233.988525 472.880157,234.927383 
	C492.407684,245.993866 511.817261,257.268555 531.595520,268.690369 
z"/>
<path fill="#FFFCFC" opacity="1.000000" stroke="none" 
	d="
M470.513855,419.448029 
	C460.116974,413.426453 449.953400,407.726349 440.003754,401.674591 
	C438.418793,400.710571 436.881744,398.176056 436.864532,396.352997 
	C436.651825,373.860809 436.697388,351.365784 436.791046,328.871979 
	C436.797119,327.410095 437.300201,325.234344 438.320068,324.607269 
	C445.663055,320.092773 453.199280,315.892548 461.772675,310.960785 
	C461.772675,313.624115 461.772675,315.327515 461.772675,317.030945 
	C461.772705,337.359039 461.966919,357.690216 461.643463,378.013184 
	C461.556885,383.452026 463.004303,386.507263 467.989349,389.260925 
	C487.351562,399.956299 506.385406,411.246185 526.238403,422.717529 
	C518.018494,427.460541 510.343842,432.019196 502.495728,436.256500 
	C501.487366,436.800964 499.399567,435.994995 498.114807,435.274414 
	C488.971680,430.146088 479.907349,424.877258 470.513855,419.448029 
z"/>
<path fill="#FFFDFD" opacity="1.000000" stroke="none" 
	d="
M549.569519,372.540009 
	C544.652161,375.408173 540.097351,378.182465 535.384216,380.655151 
	C534.144531,381.305542 532.067505,381.662964 530.966675,381.065186 
	C523.387085,376.949677 515.964478,372.545044 507.854706,367.866058 
	C509.561096,366.810028 510.709351,366.056549 511.896820,365.370972 
	C530.780518,354.469116 549.639343,343.523438 568.590881,332.740784 
	C571.246033,331.230072 572.215881,329.561188 572.195618,326.490051 
	C572.055054,305.158051 572.121521,283.824707 572.121582,262.491791 
	C572.121582,260.718628 572.121582,258.945465 572.121582,255.982162 
	C580.688416,260.935699 588.425659,265.321716 596.025208,269.934631 
	C596.818359,270.416046 597.103210,272.240112 597.106445,273.442627 
	C597.168335,296.275360 597.230530,319.109070 596.997253,341.939575 
	C596.979431,343.681610 595.141602,346.052673 593.495850,347.029083 
	C579.039246,355.606079 564.434082,363.932648 549.569519,372.540009 
z"/>
<path fill="#FFFDFD" opacity="1.000000" stroke="none" 
	d="
M485.843689,288.788635 
	C468.231079,298.950867 450.983063,309.008240 433.610474,318.845581 
	C430.747223,320.466949 429.778198,322.237457 429.799347,325.495880 
	C429.948608,348.481079 429.878601,371.467743 429.878601,395.479462 
	C424.224579,392.274170 419.347687,388.814697 413.955994,386.619751 
	C406.338623,383.518585 404.344910,378.589203 404.622864,370.534149 
	C405.306213,350.732513 404.919312,330.890869 404.773041,311.066742 
	C404.749420,307.862793 405.613586,306.045868 408.512360,304.403778 
	C427.620911,293.579010 446.642914,282.598938 465.579498,271.476044 
	C468.454742,269.787201 470.496338,269.878784 473.250000,271.583496 
	C479.880341,275.688141 486.727936,279.441864 494.199860,283.747375 
	C491.165344,285.584320 488.666016,287.097260 485.843689,288.788635 
z"/>
</svg>